<svg xmlns="http://www.w3.org/2000/svg" width="8" height="17" viewBox="0 0 8 17">
  <defs>
    <style>
      .cls-1 {
        fill: #fff;
        fill-rule: evenodd;
      }
    </style>
  </defs>
  <path class="cls-1" d="M1.646,17H4.733V8.211H7.175l0.184-2.53H4.733V3.706a1.008,1.008,0,0,1,1.214-.924,5.243,5.243,0,0,1,1.326.212L7.684,0.4A9.779,9.779,0,0,0,4.733.088,2.876,2.876,0,0,0,2.177,1.361a4.772,4.772,0,0,0-.53,2.621v1.7H0v2.53H1.646V17Zm46.6-8.445-6.469,4.052V4.5Zm6.044,3.756V4.777s0-3.632-3.406-3.632H37.933a3.409,3.409,0,0,0-3.4,3.632v7.534s0,3.632,3.4,3.632h12.95a3.41,3.41,0,0,0,3.406-3.632"/>
</svg>
