<svg xmlns="http://www.w3.org/2000/svg" width="18" height="23" viewBox="0 0 18 23">
  <defs>
    <style>
      .cls-1 {
        fill: #fff;
        fill-rule: evenodd;
      }
    </style>
  </defs>
  <path class="cls-1" d="M1076,4362l-0.94-1.2c-0.82-1.05-8.06-10.38-8.06-14.22,0-4.18,4.04-7.58,9-7.58s9,3.4,9,7.58c0,3.84-7.24,13.17-8.07,14.22Zm0-21.09c-3.72,0-6.75,2.54-6.75,5.67,0,2.42,4.26,8.61,6.75,11.94,2.49-3.33,6.75-9.52,6.75-11.94C1082.75,4343.45,1079.72,4340.91,1076,4340.91Zm-1.12,9.01-3.05-2.59,1.6-1.35,1.45,1.24,3.71-3.16,1.59,1.36Z" transform="translate(-1067 -4339)"/>
</svg>
