<svg 
 xmlns="http://www.w3.org/2000/svg"
 xmlns:xlink="http://www.w3.org/1999/xlink"
 width="24px" height="24px">
<path fill-rule="evenodd"  fill="rgb(255, 255, 255)"
 d="M12.000,24.000 C5.383,24.000 0.000,18.617 0.000,12.000 C0.000,5.383 5.383,0.000 12.000,0.000 C18.617,0.000 24.000,5.383 24.000,12.000 C24.000,18.617 18.617,24.000 12.000,24.000 ZM12.000,2.000 C6.486,2.000 2.000,6.486 2.000,12.000 C2.000,17.514 6.486,22.000 12.000,22.000 C17.514,22.000 22.000,17.514 22.000,12.000 C22.000,6.486 17.514,2.000 12.000,2.000 ZM10.000,19.000 L9.000,19.000 L9.000,12.000 L8.000,12.000 L8.000,10.000 L9.000,10.000 L14.000,10.000 L14.000,12.000 L14.000,17.000 L15.000,17.000 L15.000,19.000 L14.000,19.000 L10.000,19.000 ZM12.000,12.000 L11.000,12.000 L11.000,17.000 L12.000,17.000 L12.000,12.000 ZM11.500,9.000 C10.121,9.000 9.000,7.878 9.000,6.500 C9.000,5.122 10.121,4.000 11.500,4.000 C12.879,4.000 14.000,5.122 14.000,6.500 C14.000,7.878 12.879,9.000 11.500,9.000 ZM11.500,6.000 C11.225,6.000 11.000,6.224 11.000,6.500 C11.000,6.776 11.225,7.000 11.500,7.000 C11.775,7.000 12.000,6.776 12.000,6.500 C12.000,6.224 11.775,6.000 11.500,6.000 Z"/>
</svg>