<svg 
 xmlns="http://www.w3.org/2000/svg"
 xmlns:xlink="http://www.w3.org/1999/xlink"
 width="14px" height="9px">
<path fill-rule="evenodd"  fill="rgb(255, 46, 54)"
 d="M13.487,3.996 L10.059,0.574 C9.777,0.291 9.318,0.292 9.035,0.574 C8.753,0.856 8.753,1.314 9.035,1.595 L11.239,3.796 L0.722,3.796 C0.322,3.796 -0.002,4.120 -0.002,4.520 C-0.002,4.919 0.322,5.242 0.722,5.242 L11.239,5.242 L9.035,7.442 C8.753,7.725 8.753,8.183 9.035,8.465 C9.177,8.606 9.362,8.677 9.547,8.677 C9.733,8.677 9.918,8.606 10.059,8.465 L13.487,5.044 C13.631,4.898 13.702,4.709 13.698,4.520 C13.702,4.330 13.631,4.139 13.487,3.996 Z"/>
</svg>