<svg xmlns="http://www.w3.org/2000/svg" width="14.406" height="23.69" viewBox="0 0 14.406 23.69">
  <defs>
    <style>
      .cls-1 {
        fill: #fff;
        fill-rule: evenodd;
      }
    </style>
  </defs>
  <path id="Shape_391_copy" data-name="Shape 391 copy" class="cls-1" d="M320.18,4359.43h3.7v-1.77h-3.7v1.77Zm6.271-20.18h-9.117a2.927,2.927,0,0,0-2.633,3.15v17.38a2.924,2.924,0,0,0,2.633,3.14h9.117a2.924,2.924,0,0,0,2.633-3.14V4342.4A2.927,2.927,0,0,0,326.451,4339.25Zm0.964,20.53a1.241,1.241,0,0,1-.964,1.37h-9.117a1.241,1.241,0,0,1-.964-1.37v-3.85h11.045v3.85Zm0-5.63H316.37V4342.4a1.242,1.242,0,0,1,.964-1.37h9.117a1.242,1.242,0,0,1,.964,1.37v11.75Z" transform="translate(-314.688 -4339.25)"/>
</svg>
