<svg 
 xmlns="http://www.w3.org/2000/svg"
 xmlns:xlink="http://www.w3.org/1999/xlink"
 width="18px" height="24px">
<path fill-rule="evenodd"  fill="rgb(236, 233, 240)"
 d="M13.850,22.473 L13.015,23.746 L12.181,22.473 C11.487,21.416 8.028,16.018 8.028,13.618 C8.028,10.849 10.266,8.595 13.015,8.595 C15.764,8.595 18.000,10.849 18.000,13.618 C18.000,16.018 14.542,21.416 13.850,22.473 ZM13.015,10.610 C11.368,10.610 10.028,11.959 10.028,13.618 C10.028,14.720 11.579,17.682 13.015,20.039 C14.449,17.681 16.000,14.719 16.000,13.618 C16.000,11.959 14.661,10.610 13.015,10.610 ZM11.420,13.450 C11.420,12.564 12.133,11.843 13.015,11.843 C13.894,11.843 14.609,12.564 14.609,13.450 C14.609,14.338 13.894,15.056 13.015,15.056 C12.133,15.056 11.420,14.338 11.420,13.450 ZM12.000,5.798 L2.000,5.798 L2.000,16.880 L7.000,16.880 L7.000,18.895 L2.000,18.895 L2.000,20.911 L9.000,20.911 L9.000,22.926 L2.000,22.926 C0.897,22.926 0.000,22.022 0.000,20.911 L0.000,2.776 C0.000,1.665 0.897,0.761 2.000,0.761 L12.000,0.761 C13.103,0.761 14.000,1.665 14.000,2.776 L14.000,6.806 L12.000,6.806 L12.000,5.798 ZM12.000,2.776 L2.000,2.776 L2.000,3.784 L12.000,3.784 L12.000,2.776 Z"/>
</svg>