<svg 
 xmlns="http://www.w3.org/2000/svg"
 xmlns:xlink="http://www.w3.org/1999/xlink"
 width="14px" height="22px">
<path fill-rule="evenodd"  fill="rgb(255, 255, 255)"
 d="M11.576,21.924 L9.244,21.924 L5.469,21.924 L3.137,21.924 C1.792,21.924 0.700,20.617 0.700,19.012 L0.700,8.273 L0.700,2.925 C0.700,1.319 1.792,0.012 3.137,0.012 L11.576,0.012 C12.920,0.012 14.013,1.319 14.013,2.925 L14.013,8.273 L14.013,19.012 C14.013,20.617 12.920,21.924 11.576,21.924 ZM12.468,8.273 L12.468,2.925 C12.468,2.239 12.058,1.658 11.576,1.658 L3.137,1.658 C2.655,1.658 2.245,2.239 2.245,2.925 L2.245,8.273 L2.245,13.806 L7.088,13.806 L7.624,13.806 L12.468,13.806 L12.468,8.273 ZM12.468,15.451 L7.624,15.451 L7.088,15.451 L2.245,15.451 L2.245,19.012 C2.245,19.697 2.653,20.279 3.137,20.279 L5.469,20.279 L9.244,20.279 L11.576,20.279 C12.060,20.279 12.468,19.697 12.468,19.012 L12.468,15.451 ZM5.771,17.049 L9.193,17.049 L9.193,18.694 L5.771,18.694 L5.771,17.049 Z"/>
</svg>