<svg 
 xmlns="http://www.w3.org/2000/svg"
 xmlns:xlink="http://www.w3.org/1999/xlink"
 width="16px" height="16px">
<path fill-rule="evenodd"  fill="rgb(255, 46, 54)"
 d="M2.168,2.292 C-0.208,4.780 -0.127,8.767 2.343,11.161 C4.506,13.257 7.802,13.499 10.226,11.885 L13.383,15.039 C13.869,15.525 14.658,15.525 15.144,15.039 L15.144,15.039 C15.630,14.554 15.630,13.766 15.144,13.280 L11.986,10.126 C13.619,7.679 13.355,4.342 11.193,2.183 C8.695,-0.313 4.621,-0.277 2.168,2.292 ZM10.040,9.940 C8.217,11.761 5.251,11.761 3.428,9.940 C1.605,8.119 1.605,5.157 3.428,3.335 C5.251,1.514 8.217,1.514 10.040,3.335 C11.863,5.157 11.863,8.119 10.040,9.940 Z"/>
</svg>