<svg xmlns="http://www.w3.org/2000/svg" width="21" height="17" viewBox="0 0 21 17">
  <defs>
    <style>
      .cls-1 {
        fill: #fff;
        fill-rule: evenodd;
      }
    </style>
  </defs>
  <path class="cls-1" d="M-32.354,17h3.086V8.211h2.442l0.184-2.53h-2.626V3.706a1.008,1.008,0,0,1,1.214-.924,5.243,5.243,0,0,1,1.326.212L-26.316.4A9.779,9.779,0,0,0-29.267.088a2.876,2.876,0,0,0-2.556,1.274,4.772,4.772,0,0,0-.53,2.621v1.7H-34v2.53h1.647V17Zm46.6-8.445L7.776,12.606V4.5Zm6.044,3.756V4.777s0-3.632-3.406-3.632H3.933a3.409,3.409,0,0,0-3.4,3.632v7.534s0,3.632,3.4,3.632h12.95a3.41,3.41,0,0,0,3.406-3.632"/>
</svg>
