<svg xmlns="http://www.w3.org/2000/svg" width="48.75" height="48.78" viewBox="0 0 48.75 48.78">
  <defs>
    <style>
      .cls-1 {
        fill: #fff;
        fill-rule: evenodd;
      }
    </style>
  </defs>
  <path class="cls-1" d="M593.077,1830.17a24.392,24.392,0,1,0,34.49,0A24.235,24.235,0,0,0,593.077,1830.17Zm2.266,33.13,14.979-14.98,4.074,4.07a17.641,17.641,0,0,0-4.729,12.01v4.83A21.73,21.73,0,0,1,595.343,1863.3Zm29.958-31.76-14.979,14.98-4.169-4.17a17.622,17.622,0,0,0,4.8-12.09v-4.65A21.728,21.728,0,0,1,625.3,1831.54Zm-32.057,16.44a17.652,17.652,0,0,0,12.008-4.73l4.172,4.17-14.979,14.98a21.652,21.652,0,0,1-5.947-14.42h4.746Zm-4.738-1.27a21.656,21.656,0,0,1,5.939-14.27l9.91,9.91a16.343,16.343,0,0,1-11.111,4.36h-4.738Zm43.63,1.25a21.754,21.754,0,0,1-5.938,14.44l-10.011-10.01a16.366,16.366,0,0,1,11.193-4.43h4.756Zm-4.756-1.27a17.626,17.626,0,0,0-12.09,4.8l-4.07-4.07,14.978-14.98a21.754,21.754,0,0,1,5.929,14.25H627.38Zm-17.693-21.08v4.65a16.376,16.376,0,0,1-4.431,11.2l-9.913-9.92A21.728,21.728,0,0,1,609.687,1825.61Zm1.25,43.63v-4.84a16.372,16.372,0,0,1,4.356-11.11L625.3,1863.3A21.785,21.785,0,0,1,610.937,1869.24Z" transform="translate(-585.938 -1823.03)"/>
</svg>
