<svg xmlns="http://www.w3.org/2000/svg" width="53.06" height="59.97" viewBox="0 0 53.06 59.97">
  <defs>
    <style>
      .cls-1 {
        fill: #fff;
        fill-rule: evenodd;
      }
    </style>
  </defs>
  <path class="cls-1" d="M1055.39,1873.06a28.527,28.527,0,0,0,.09-40.68,1.388,1.388,0,0,0-1.96,0,0.906,0.906,0,0,0-.11.16,1.4,1.4,0,0,0-.16.1l-2.45,2.41a23.984,23.984,0,0,0-15.89-6.05h-0.06a23.848,23.848,0,0,0-23.96,23.62,23.351,23.351,0,0,0,6.05,15.74l-2.45,2.41a0.828,0.828,0,0,0-.11.15c-0.05.04-.1,0.06-0.15,0.1a1.355,1.355,0,0,0-.01,1.94,29.041,29.041,0,0,0,19.32,8.41v1.08l-10.92,3.84a1.368,1.368,0,0,0-.85,1.75,1.4,1.4,0,0,0,1.78.84l10.07-3.53v2.23a1.39,1.39,0,0,0,2.78,0v-2.23l9.91,3.53a1.5,1.5,0,0,0,.47.08,1.4,1.4,0,0,0,1.31-.91,1.374,1.374,0,0,0-.84-1.76l-10.93-3.89v-1.04A29.06,29.06,0,0,0,1055.39,1873.06Zm-35.94-34.7,4.78,4.75a26.064,26.064,0,0,0-5.56,8.67,44.8,44.8,0,0,0-4.72-2.31A20.716,20.716,0,0,1,1019.45,1838.36Zm10.88-6.12a44.392,44.392,0,0,0,2.37,4.97,26.529,26.529,0,0,0-7.48,4.93l-4.78-4.75A21.217,21.217,0,0,1,1030.33,1832.24Zm4.52-.49h0.05a21.185,21.185,0,0,1,11.57,3.45,26.276,26.276,0,0,0-12.47,1.49,44.057,44.057,0,0,1-2.27-4.69A21.524,21.524,0,0,1,1034.85,1831.75Zm20.92,24.1a43.424,43.424,0,0,1-4.96-2.37,25.473,25.473,0,0,0,1.57-12.53,20.616,20.616,0,0,1,3.65,11.77A21.665,21.665,0,0,1,1055.77,1855.85Zm-36.35-2.01a43.679,43.679,0,0,1,7.42,5.75l-7.46,7.34c-0.15-.16-0.3-0.33-0.45-0.49A24.025,24.025,0,0,1,1019.42,1853.84Zm0.94,14.06,7.46-7.34a43.411,43.411,0,0,1,5.66,7.15,24.864,24.864,0,0,1-12.85.43Zm8.45-8.31,6.04-5.95,8.46,8.4a24.858,24.858,0,0,1-8.48,5.21A45.559,45.559,0,0,0,1028.81,1859.59Zm7.03-6.91,4.99-4.91a45.071,45.071,0,0,0,8.23,6.27,24.6,24.6,0,0,1-4.76,7.03Zm-0.98-.98-8.66-8.59a25.191,25.191,0,0,1,7.2-4.7,44.62,44.62,0,0,0,6.45,8.38Zm-0.99.97-6.04,5.95a45.579,45.579,0,0,0-7.95-6.12,24.672,24.672,0,0,1,5.34-8.42Zm-7.63,17.5a26.36,26.36,0,0,0,7.98-1.26,44.419,44.419,0,0,1,2.36,4.61c-0.57.04-1.14,0.08-1.72,0.08h-0.05a21.223,21.223,0,0,1-11.91-3.66A26.776,26.776,0,0,0,1026.24,1870.17Zm9.32-1.73a26.583,26.583,0,0,0,8.73-5.43l4.99,4.95a21.038,21.038,0,0,1-11.27,5.38A44.782,44.782,0,0,0,1035.56,1868.44Zm9.72-6.39a26.213,26.213,0,0,0,4.98-7.3,44.965,44.965,0,0,0,5.25,2.48,20.63,20.63,0,0,1-5.24,9.76Zm4.31-9.29a44.828,44.828,0,0,1-7.78-5.96l8.51-8.37a3.446,3.446,0,0,1,.26.28A24.037,24.037,0,0,1,1049.59,1852.76Zm-0.25-15.31-8.51,8.37a43.337,43.337,0,0,1-6.12-7.93,24.874,24.874,0,0,1,14.13-.89C1049.01,1837.15,1049.18,1837.3,1049.34,1837.45Zm-31.15,15.64a25.362,25.362,0,0,0-1.07,11.02,20.545,20.545,0,0,1-3.45-11.48c0.01-.59.05-1.17,0.1-1.75A45.538,45.538,0,0,1,1018.19,1853.09Zm-0.96,18.86,1.67-1.65a23.945,23.945,0,0,0,15.9,6.05h0.06a23.935,23.935,0,0,0,16.9-6.9,23.384,23.384,0,0,0,1-32.45l1.69-1.66a25.748,25.748,0,0,1-1.02,35.77,26.275,26.275,0,0,1-18.5,7.57h-0.08A26.223,26.223,0,0,1,1017.23,1871.95Z" transform="translate(-1010.91 -1829)"/>
</svg>
