<svg xmlns="http://www.w3.org/2000/svg" width="69.688" height="42" viewBox="0 0 69.688 42">
  <defs>
    <style>
      .cls-1 {
        fill: #fff;
        fill-rule: evenodd;
      }
    </style>
  </defs>
  <path class="cls-1" d="M421.73,1834.7l-23.211-8.83a18.265,18.265,0,0,0-12.983,0l-23.21,8.83a4.57,4.57,0,0,0-2.93,3.83,1.284,1.284,0,0,0-.069.34v10.49c-2.544,1.02-4.334,4.9-4.334,9.82,0,0.41.018,0.82,0.043,1.22a1.313,1.313,0,0,0,.509.95,8.042,8.042,0,0,0,10.263,0,1.312,1.312,0,0,0,.508-0.95c0.025-.4.044-0.81,0.044-1.22,0-4.92-1.791-8.8-4.335-9.82v-6.11c0.1,0.05.2,0.1,0.3,0.14l11.037,4.2v6.88a9.794,9.794,0,0,0,6.122,9.1l3.574,1.41a24.374,24.374,0,0,0,17.937,0l3.574-1.41a9.793,9.793,0,0,0,6.124-9.1v-6.88l11.036-4.2A4.664,4.664,0,0,0,421.73,1834.7Zm-0.97,6.21-10.066,3.83-1.35.51-1.348.51-10.446,3.97a15.511,15.511,0,0,1-11.044,0l-10.445-3.97-1.35-.51-1.348-.51-10.068-3.83a2.023,2.023,0,0,1,0-3.73l23.211-8.82a15.457,15.457,0,0,1,11.044,0l23.21,8.82A2.022,2.022,0,0,1,420.76,1840.91ZM408,1854.47a7.125,7.125,0,0,1-4.424,6.63L400,1862.51a21.719,21.719,0,0,1-15.939,0l-3.574-1.41a7.124,7.124,0,0,1-4.423-6.63v-5.86l9.475,3.61a18.3,18.3,0,0,0,12.983,0l9.477-3.61v5.86Zm-50.305,4.71c0-3.75,1.205-6.35,2.311-7.15v8.45a5.451,5.451,0,0,1-2.3-.87C357.694,1859.47,357.691,1859.33,357.691,1859.18Zm5.971,0c0,0.15,0,.29-0.008.43a5.455,5.455,0,0,1-2.3.87v-8.45C362.457,1852.83,363.662,1855.43,363.662,1859.18Z" transform="translate(-355 -1824.69)"/>
</svg>
