<svg xmlns="http://www.w3.org/2000/svg" width="41.97" height="62.25" viewBox="0 0 41.97 62.25">
  <defs>
    <style>
      .cls-1 {
        fill: #fff;
        fill-rule: evenodd;
      }
    </style>
  </defs>
  <path class="cls-1" d="M1459.01,1913.88a4.246,4.246,0,0,0-3.45,1.78l-2.6,3.65a4.2,4.2,0,0,0,3.46,6.63h33.5a4.218,4.218,0,0,0,3.75-2.27,4.161,4.161,0,0,0-.3-4.36l-2.59-3.65a4.251,4.251,0,0,0-3.46-1.78h-5.69l-1.86-3.4a19.761,19.761,0,0,0,9.33-7.5l0.49-.74a19.751,19.751,0,0,0-4.3-26.47,2.6,2.6,0,0,1,.4-0.33l3.47-2.37a2.748,2.748,0,0,0,1.2-2.3,2.783,2.783,0,0,0-1.24-2.27l-6.67-4.38a2.8,2.8,0,0,0-2.59-.24,2.769,2.769,0,0,0-1.65,2l-0.83,4.1a2.57,2.57,0,0,1-.4.95l-6.45,9.71a2.932,2.932,0,0,0,.83,4.06l3.07,2.01a2.925,2.925,0,0,0,2.21.43,2.916,2.916,0,0,0,1.87-1.26l1.55-2.34a10.489,10.489,0,0,1,1.73,13.58l-0.49.74a10.6,10.6,0,0,1-11.63,4.34,1.382,1.382,0,0,1-.94-0.85,1.354,1.354,0,0,1,.14-1.25l3.77-5.68,3.35,2.2a1.3,1.3,0,0,0,.73.22,1.363,1.363,0,0,0,1.12-.59,1.332,1.332,0,0,0-.38-1.84l-14.39-9.46a1.33,1.33,0,1,0-1.48,2.21l3.25,2.14-5.58,8.4a7.847,7.847,0,0,0,2.23,10.89,19.942,19.942,0,0,0,4.85,2.31l-1.64,2.98h-5.69Zm10.01-2.32,1.35-2.48,1.42-2.58a1.645,1.645,0,0,1,2.76,0l1.3,2.38,1.33,2.42,1.41,2.58h-10.85Zm19.57,5.63,2.21,3.11h-35.27l2.21-3.11a1.559,1.559,0,0,1,1.27-.65h28.31A1.546,1.546,0,0,1,1488.59,1917.19Zm2.71,5.26a1.521,1.521,0,0,1-1.38.84h-33.5a1.536,1.536,0,0,1-1.39-.84,1.577,1.577,0,0,1-.17-0.82h36.61A1.484,1.484,0,0,1,1491.3,1922.45Zm-13.07-40.96-1.95,2.93-0.38.08-3.06-2.02a0.264,0.264,0,0,1-.08-0.37l2-3.01,3.46,2.28,0.06,0.03Zm0.98-9.1a5.173,5.173,0,0,0,.79-1.89l0.83-4.1,0.15-.06,6.66,4.38v0.16l-3.47,2.37a5.517,5.517,0,0,0-1.42,1.43c0,0.01-.01.02-0.01,0.03l-0.04.06-0.06-.04-3.47-2.28Zm-0.77,1.17,3.3,2.17,0.22,0.14-2.95,4.44-0.22-.15-3.3-2.17Zm5.09,25.76,0.49-.74a13.108,13.108,0,0,0-2.47-17.27l2.22-3.35a17.1,17.1,0,0,1,3.59,22.82l-0.49.74a17.08,17.08,0,0,1-8.39,6.61l-1.59-2.9a4.39,4.39,0,0,0-.42-0.61A13.238,13.238,0,0,0,1483.53,1899.32Zm-20.56,7.05a5.178,5.178,0,0,1-1.48-7.2l5.52-8.31,3.34,2.19-3.71,5.58a4.043,4.043,0,0,0,2.32,6.13c0.23,0.06.46,0.11,0.68,0.16-0.06.1-.14,0.2-0.2,0.31l-1.81,3.3A17.439,17.439,0,0,1,1462.97,1906.37Z" transform="translate(-1452.19 -1863.69)"/>
</svg>
