<svg xmlns="http://www.w3.org/2000/svg" width="60.188" height="44.12" viewBox="0 0 60.188 44.12">
  <defs>
    <style>
      .cls-1 {
        fill: #fff;
        fill-rule: evenodd;
      }
    </style>
  </defs>
  <path class="cls-1" d="M812.37,1862.7h2.17a1.355,1.355,0,1,0,0-2.71h-2.17a1.392,1.392,0,0,1-1.073-.59l0-.01h0a2.411,2.411,0,0,1-.407-2.09,10.825,10.825,0,0,1,7.252-7.85,4.56,4.56,0,0,0,2.244-7.13,9.624,9.624,0,0,1-1.842-5.34c0-2.69,1.729-4.87,3.856-4.87a3.214,3.214,0,0,1,1.789.58,1.369,1.369,0,0,0,1.9-.35,1.341,1.341,0,0,0-.357-1.88,5.964,5.964,0,0,0-3.336-1.06c-3.638,0-6.6,3.4-6.6,7.58a12.17,12.17,0,0,0,2.385,6.96,1.912,1.912,0,0,1,.4,1.15,1.874,1.874,0,0,1-1.309,1.79,13.474,13.474,0,0,0-9.046,9.74,5.123,5.123,0,0,0,.888,4.42s0,0.01,0,.01A4.124,4.124,0,0,0,812.37,1862.7Zm46.645-15.82a1.874,1.874,0,0,1-1.31-1.79,1.922,1.922,0,0,1,.4-1.15,12.165,12.165,0,0,0,2.387-6.96c0-4.18-2.96-7.58-6.6-7.58a5.96,5.96,0,0,0-3.337,1.06,1.341,1.341,0,0,0-.356,1.88,1.372,1.372,0,0,0,1.906.35,3.2,3.2,0,0,1,1.787-.58c2.127,0,3.856,2.18,3.856,4.87a9.611,9.611,0,0,1-1.844,5.34,4.562,4.562,0,0,0,2.247,7.13,10.824,10.824,0,0,1,7.25,7.85,2.413,2.413,0,0,1-.4,2.09h0a1.381,1.381,0,0,1-1.075.6h-2.171a1.355,1.355,0,1,0,0,2.71h2.171a4.1,4.1,0,0,0,3.243-1.65,0.053,0.053,0,0,0,.006-0.01,5.12,5.12,0,0,0,.887-4.42A13.471,13.471,0,0,0,859.015,1846.88Zm-27.652.2a17.852,17.852,0,0,0-11.993,12.91,6.823,6.823,0,0,0,1.191,5.91,5.45,5.45,0,0,0,4.342,2.21h26.483a5.456,5.456,0,0,0,4.344-2.21,6.83,6.83,0,0,0,1.193-5.91,17.862,17.862,0,0,0-11.991-12.91,2.42,2.42,0,0,1-1.681-2.3,2.452,2.452,0,0,1,.518-1.48,16.348,16.348,0,0,0,3.163-9.24c0-5.55-3.942-10.07-8.786-10.07s-8.786,4.52-8.786,10.07a16.423,16.423,0,0,0,3.164,9.25A2.4,2.4,0,0,1,831.363,1847.08Zm4.417-2.3a5.078,5.078,0,0,0-1.059-3.09,13.549,13.549,0,0,1-2.619-7.63c0-4.06,2.71-7.36,6.044-7.36s6.044,3.3,6.044,7.36a13.549,13.549,0,0,1-2.619,7.63,5.083,5.083,0,0,0,2.5,7.96,15.206,15.206,0,0,1,10.2,11.02,4.113,4.113,0,0,1-.705,3.57,2.738,2.738,0,0,1-2.177,1.16H824.9a2.748,2.748,0,0,1-2.174-1.15,4.138,4.138,0,0,1-.706-3.58,15.2,15.2,0,0,1,10.2-11.02A5.127,5.127,0,0,0,835.78,1844.78Z" transform="translate(-808.062 -1824)"/>
</svg>
