<svg xmlns="http://www.w3.org/2000/svg" width="51.06" height="47.13" viewBox="0 0 51.06 47.13">
  <defs>
    <style>
      .cls-1 {
        fill: #fff;
        fill-rule: evenodd;
      }
    </style>
  </defs>
  <path class="cls-1" d="M1264.28,1894.96a3.67,3.67,0,0,0,3.66-3.67v-7.76h1.73a5.414,5.414,0,0,0,5.4-5.42v-24.86a5.414,5.414,0,0,0-5.4-5.42H1229.4a5.414,5.414,0,0,0-5.4,5.42v24.86a5.414,5.414,0,0,0,5.4,5.42h1.73v7.76a3.66,3.66,0,1,0,7.32,0v-7.76h22.17v7.76A3.67,3.67,0,0,0,1264.28,1894.96Zm-28.41-3.67a1.08,1.08,0,1,1-2.16,0v-7.76h2.16v7.76Zm0-10.35h-6.47a2.816,2.816,0,0,1-2.77-2.37h45.81a2.816,2.816,0,0,1-2.77,2.37h-33.8Zm-9.29-27.69a2.832,2.832,0,0,1,2.82-2.83h40.27a2.832,2.832,0,0,1,2.82,2.83v24.03h-45.91v-24.03Zm38.78,30.28v7.76a1.08,1.08,0,1,1-2.16,0v-7.76h2.16Zm-26.15-18.51h2.02l2.79,6.83a1.151,1.151,0,0,0,1.07.72h0.07a1.176,1.176,0,0,0,1.05-.86l3.72-13.94h7.41a1.16,1.16,0,1,0,0-2.32h-8.3a1.144,1.144,0,0,0-1.11.86l-3.07,11.48-1.79-4.37a1.156,1.156,0,0,0-1.07-.72h-2.79a1.128,1.128,0,0,0-.76.3,1.152,1.152,0,0,0-.4.86,1.173,1.173,0,0,0,.4.87A1.12,1.12,0,0,0,1239.21,1865.02Zm12.28-3.09a1.056,1.056,0,0,0-1.06,1.07v1.48a1.065,1.065,0,1,0,2.13,0v-0.41h4.34a1.055,1.055,0,0,1,0,2.11h-2.65a1.065,1.065,0,1,0,0,2.13h3.04a1.061,1.061,0,0,1,1.05,1.07,1.05,1.05,0,0,1-1.05,1.05h-4.18a0.979,0.979,0,0,1-.9-0.67,1.061,1.061,0,0,0-2.01.68,2.929,2.929,0,0,0,2.91,2.13h4.18a3.19,3.19,0,0,0,3.18-3.19,3.153,3.153,0,0,0-1.02-2.34,3.183,3.183,0,0,0-2.55-5.11h-5.41Z" transform="translate(-1224 -1847.84)"/>
</svg>
