<svg 
 xmlns="http://www.w3.org/2000/svg"
 xmlns:xlink="http://www.w3.org/1999/xlink"
 width="37px" height="45px">
<path fill-rule="evenodd"  fill="rgb(255, 46, 54)"
 d="M36.300,26.797 L35.899,29.974 C35.262,35.016 32.576,39.844 28.889,42.575 C27.013,43.963 25.013,44.697 23.150,44.697 C22.797,44.697 22.448,44.670 22.105,44.616 C21.584,44.534 21.044,44.351 20.500,44.071 C19.209,43.403 17.670,43.403 16.384,44.070 C15.838,44.351 15.298,44.534 14.778,44.616 C12.636,44.951 10.223,44.225 7.992,42.574 C4.305,39.842 1.619,35.015 0.983,29.974 L0.582,26.796 C-0.051,21.794 1.616,17.165 5.042,14.412 C7.951,12.072 11.646,11.483 15.440,12.745 L15.555,12.791 L16.485,13.233 C17.771,13.847 19.244,13.832 20.523,13.193 L21.310,12.799 L21.441,12.745 C25.238,11.482 28.930,12.073 31.840,14.412 C35.265,17.165 36.932,21.795 36.300,26.797 ZM30.586,15.926 C28.240,14.042 25.244,13.563 22.144,14.574 L21.422,14.936 C19.586,15.852 17.474,15.874 15.621,14.993 L14.748,14.577 C11.639,13.563 8.642,14.040 6.296,15.926 C3.446,18.216 2.012,22.289 2.550,26.554 L2.951,29.734 C3.524,34.266 5.912,38.587 9.185,41.012 C10.983,42.343 12.861,42.936 14.465,42.687 C14.772,42.638 15.108,42.521 15.464,42.338 C16.396,41.857 17.418,41.617 18.440,41.617 C19.463,41.617 20.487,41.857 21.420,42.339 C21.774,42.521 22.110,42.638 22.418,42.687 C24.024,42.935 25.898,42.344 27.696,41.013 C30.968,38.589 33.358,34.267 33.931,29.734 L34.332,26.555 C34.870,22.289 33.436,18.216 30.586,15.926 ZM14.805,18.470 C12.670,17.760 10.609,18.080 9.001,19.371 C7.041,20.946 6.055,23.757 6.428,26.709 C6.496,27.244 6.110,27.732 5.566,27.799 L5.443,27.806 C4.950,27.806 4.521,27.445 4.460,26.949 C3.996,23.283 5.225,19.883 7.746,17.856 C9.871,16.149 12.676,15.696 15.440,16.619 C15.960,16.792 16.238,17.346 16.062,17.857 C15.888,18.369 15.323,18.646 14.805,18.470 ZM5.899,28.744 C6.440,28.672 6.938,29.057 7.005,29.593 C7.143,30.684 7.432,31.754 7.865,32.773 C8.077,33.270 7.838,33.842 7.333,34.051 C7.208,34.103 7.078,34.127 6.950,34.127 C6.562,34.127 6.194,33.902 6.035,33.526 C5.532,32.343 5.197,31.101 5.037,29.834 C4.969,29.299 5.355,28.811 5.899,28.744 ZM26.327,9.133 C24.470,10.963 21.996,11.962 19.402,11.962 C19.009,11.962 18.615,11.939 18.218,11.893 C17.763,11.840 17.404,11.486 17.350,11.038 C16.990,8.068 18.011,5.155 20.150,3.049 C22.287,0.943 25.231,-0.062 28.260,0.290 C28.714,0.344 29.074,0.697 29.128,1.146 C29.487,4.116 28.466,7.028 26.327,9.133 ZM21.553,4.430 C20.040,5.921 19.228,7.919 19.265,10.007 C21.351,10.033 23.412,9.241 24.925,7.752 C26.438,6.261 27.250,4.264 27.213,2.177 C25.077,2.105 23.066,2.941 21.553,4.430 Z"/>
</svg>