<svg 
 xmlns="http://www.w3.org/2000/svg"
 xmlns:xlink="http://www.w3.org/1999/xlink"
 width="40px" height="39px">
<path fill-rule="evenodd"  fill="rgb(255, 46, 54)"
 d="M6.525,6.346 C2.924,9.947 0.940,14.736 0.940,19.830 C0.940,24.924 2.924,29.713 6.525,33.315 C10.242,37.032 15.124,38.892 20.007,38.892 C24.889,38.892 29.772,37.032 33.489,33.315 C40.922,25.879 40.922,13.780 33.489,6.346 C26.054,-1.090 13.959,-1.090 6.525,6.346 ZM8.297,32.244 L20.007,20.532 L23.192,23.718 C20.905,26.189 19.495,29.481 19.495,33.106 L19.495,36.883 C15.449,36.762 11.446,35.217 8.297,32.244 ZM31.716,7.416 L20.007,19.129 L16.748,15.868 C19.069,13.391 20.503,10.071 20.503,6.415 L20.503,2.777 C24.555,2.894 28.563,4.440 31.716,7.416 ZM6.656,20.265 C10.280,20.265 13.572,18.854 16.043,16.567 L19.305,19.831 L7.595,31.544 C4.689,28.465 3.052,24.498 2.946,20.265 L6.656,20.265 ZM2.952,19.273 C3.086,15.085 4.717,11.164 7.595,8.117 L15.342,15.866 C13.051,17.974 10.006,19.273 6.656,19.273 L2.952,19.273 ZM37.060,20.250 C36.961,24.328 35.413,28.369 32.418,31.543 L24.592,23.715 C26.889,21.572 29.961,20.250 33.342,20.250 L37.060,20.250 ZM33.342,19.257 C29.687,19.257 26.368,20.691 23.891,23.013 L20.708,19.831 L32.418,8.118 C35.375,11.252 36.919,15.230 37.053,19.257 L33.342,19.257 ZM19.511,2.777 L19.511,6.415 C19.511,9.797 18.188,12.869 16.046,15.167 L8.297,7.416 C11.450,4.440 15.459,2.894 19.511,2.777 ZM20.488,36.885 L20.488,33.106 C20.488,29.755 21.786,26.710 23.893,24.420 L31.716,32.244 C28.560,35.225 24.544,36.771 20.488,36.885 Z"/>
</svg>