<svg 
 xmlns="http://www.w3.org/2000/svg"
 xmlns:xlink="http://www.w3.org/1999/xlink"
 width="42px" height="38px">
<path fill-rule="evenodd"  fill="rgb(255, 46, 54)"
 d="M36.770,7.398 L31.095,7.398 L31.095,6.590 C31.095,3.418 28.564,0.838 25.453,0.838 L17.436,0.838 C14.324,0.838 11.793,3.418 11.793,6.590 L11.793,7.398 L6.117,7.398 C3.260,7.398 0.936,9.767 0.936,12.680 L0.936,32.535 C0.936,35.447 3.260,37.816 6.117,37.816 L36.770,37.816 C39.628,37.816 41.952,35.447 41.952,32.535 L41.952,12.680 C41.952,9.767 39.628,7.398 36.770,7.398 ZM36.770,35.827 L6.117,35.827 C4.336,35.827 2.887,34.350 2.887,32.535 L2.887,22.113 L9.089,22.113 L9.089,24.650 C9.089,25.908 10.094,26.931 11.328,26.931 C12.562,26.931 13.565,25.908 13.565,24.650 L13.565,22.113 L29.322,22.113 L29.322,24.650 C29.322,25.908 30.326,26.931 31.560,26.931 C32.794,26.931 33.798,25.908 33.798,24.650 L33.798,22.113 L40.000,22.113 L40.000,32.535 C40.000,34.350 38.551,35.827 36.770,35.827 ZM6.117,9.387 L11.793,9.387 L13.744,9.387 L14.720,9.387 L16.671,9.387 L26.216,9.387 L28.168,9.387 L29.143,9.387 L31.095,9.387 L36.770,9.387 C38.551,9.387 40.000,10.864 40.000,12.680 L40.000,21.118 L33.798,21.118 L33.798,19.347 C33.798,18.089 32.794,17.067 31.560,17.067 C30.326,17.067 29.322,18.089 29.322,19.347 L29.322,21.118 L13.565,21.118 L13.565,19.347 C13.565,18.089 12.562,17.067 11.328,17.067 C10.094,17.067 9.089,18.089 9.089,19.347 L9.089,21.118 L2.887,21.118 L2.887,12.680 C2.887,10.864 4.336,9.387 6.117,9.387 ZM26.216,7.398 L16.671,7.398 L16.671,6.590 C16.671,6.160 17.014,5.811 17.436,5.811 L25.453,5.811 C25.874,5.811 26.216,6.160 26.216,6.590 L26.216,7.398 ZM32.822,21.118 L32.822,22.113 L32.822,24.650 C32.822,25.359 32.256,25.936 31.560,25.936 C30.863,25.936 30.297,25.359 30.297,24.650 L30.297,22.113 L30.297,21.118 L30.297,19.347 C30.297,18.638 30.863,18.061 31.560,18.061 C32.256,18.061 32.822,18.638 32.822,19.347 L32.822,21.118 ZM12.589,21.118 L12.589,22.113 L12.589,24.650 C12.589,25.359 12.023,25.936 11.328,25.936 C10.631,25.936 10.065,25.359 10.065,24.650 L10.065,22.113 L10.065,21.118 L10.065,19.347 C10.065,18.638 10.631,18.061 11.328,18.061 C12.023,18.061 12.589,18.638 12.589,19.347 L12.589,21.118 ZM13.744,6.590 C13.744,4.515 15.400,2.828 17.436,2.828 L25.453,2.828 C27.488,2.828 29.143,4.515 29.143,6.590 L29.143,7.398 L28.168,7.398 L28.168,6.590 C28.168,5.064 26.950,3.822 25.453,3.822 L17.436,3.822 C15.938,3.822 14.720,5.064 14.720,6.590 L14.720,7.398 L13.744,7.398 L13.744,6.590 Z"/>
</svg>