<svg 
 xmlns="http://www.w3.org/2000/svg"
 xmlns:xlink="http://www.w3.org/1999/xlink"
 width="50px" height="34px">
<path fill-rule="evenodd"  fill="rgb(255, 46, 54)"
 d="M49.484,14.806 L46.258,14.806 C45.275,14.806 44.433,15.414 44.080,16.273 L48.857,16.273 C49.130,16.273 49.391,16.388 49.576,16.589 C49.761,16.791 49.854,17.062 49.832,17.335 C49.066,26.676 41.286,33.993 32.120,33.993 L17.378,33.993 C8.548,33.993 1.081,27.257 0.377,18.658 C-0.039,13.565 1.838,8.629 5.526,5.116 C9.215,1.605 14.238,-0.013 19.310,0.671 C25.985,1.575 31.566,6.627 33.199,13.242 C33.904,16.097 33.858,18.958 33.064,21.758 C35.385,21.434 37.228,19.603 37.666,17.086 C37.748,16.616 38.154,16.273 38.629,16.273 L43.062,16.273 C43.455,14.866 44.731,13.825 46.258,13.825 L49.484,13.825 C49.754,13.825 49.973,14.045 49.973,14.316 C49.973,14.586 49.754,14.806 49.484,14.806 ZM43.512,20.096 C42.206,24.880 37.835,28.222 32.884,28.222 L17.006,28.222 C10.977,28.222 6.074,23.302 6.074,17.254 C6.074,11.207 10.977,6.288 17.006,6.288 C23.034,6.288 27.939,11.207 27.939,17.254 C27.939,21.693 25.291,25.517 21.500,27.241 L32.884,27.241 C37.396,27.241 41.378,24.196 42.569,19.837 C42.712,19.314 42.797,18.777 42.854,18.235 L39.410,18.235 C38.495,21.533 35.682,23.772 32.319,23.772 C31.864,23.772 31.436,23.551 31.170,23.184 C30.904,22.812 30.830,22.329 30.976,21.892 C31.869,19.210 31.979,16.458 31.301,13.713 C29.859,7.872 24.935,3.412 19.048,2.615 C18.372,2.524 17.697,2.478 17.027,2.478 C13.254,2.478 9.637,3.907 6.873,6.540 C3.616,9.641 1.958,14.000 2.327,18.497 C2.947,26.087 9.559,32.032 17.378,32.032 L32.120,32.032 C39.927,32.032 46.605,26.053 47.761,18.235 L43.832,18.235 C43.772,18.865 43.678,19.489 43.512,20.096 ZM26.962,17.254 C26.962,11.748 22.495,7.268 17.006,7.268 C11.517,7.268 7.051,11.748 7.051,17.254 C7.051,22.760 11.517,27.241 17.006,27.241 C22.495,27.241 26.962,22.760 26.962,17.254 ZM17.006,10.736 C20.588,10.736 23.503,13.661 23.503,17.254 C23.503,20.848 20.588,23.772 17.006,23.772 C13.424,23.772 10.508,20.848 10.508,17.254 C10.508,13.661 13.424,10.736 17.006,10.736 ZM17.006,21.810 C19.510,21.810 21.548,19.766 21.548,17.254 C21.548,14.742 19.510,12.698 17.006,12.698 C14.502,12.698 12.464,14.742 12.464,17.254 C12.464,19.766 14.502,21.810 17.006,21.810 Z"/>
</svg>